# xmcd
#
# Track frame offsets: 
#        150
#        14469
#        37828
#        53445
#        76361
#        94300
#        126210
#        147960
#
# Disc length: 2243 seconds
#
# Revision: 0
# Processed by: cddbd v1.5.2PL0 Copyright (c) Steve Scherf et al.
# Submitted via: ExactAudioCopy v0.99pb5
#
DISCID=5e08c108
DTITLE=Damon Harris - Silk
DYEAR=1978
DGENRE=Soul
TTITLE0=It's Music
TTITLE1=Funday
TTITLE2=Dish Is Out
TTITLE3=Actresses
TTITLE4=Silk
TTITLE5=I Feel In Love
TTITLE6=Ride On
TTITLE7=My Love For You
EXTD=
EXTT0=
EXTT1=
EXTT2=
EXTT3=
EXTT4=
EXTT5=
EXTT6=
EXTT7=
PLAYORDER=
